<svg width="20" height="20" viewBox="0 0 20 20" fill="none" xmlns="http://www.w3.org/2000/svg">
<path fill-rule="evenodd" clip-rule="evenodd" d="M20 10C20 15.5228 15.5228 20 10 20C4.47715 20 0 15.5228 0 10C0 4.47715 4.47715 0 10 0C15.5228 0 20 4.47715 20 10ZM7.70245 6.6413C7.40956 6.34841 6.93468 6.34841 6.64179 6.6413C6.3489 6.93419 6.3489 7.40907 6.64179 7.70196L8.93988 10.0001L6.64179 12.2981C6.3489 12.591 6.3489 13.0659 6.64179 13.3588C6.93468 13.6517 7.40955 13.6517 7.70245 13.3588L10.0005 11.0607L12.2986 13.3588C12.5915 13.6517 13.0664 13.6517 13.3593 13.3588C13.6522 13.0659 13.6522 12.591 13.3593 12.2981L11.0612 10.0001L13.3593 7.70196C13.6522 7.40906 13.6522 6.93419 13.3593 6.6413C13.0664 6.34841 12.5915 6.34841 12.2986 6.6413L10.0005 8.9394L7.70245 6.6413Z" fill="#31324B"/>
</svg>
