<svg width="24" height="24" viewBox="0 0 24 24" fill="none" xmlns="http://www.w3.org/2000/svg">
<path fill-rule="evenodd" clip-rule="evenodd" d="M21.5 9.79999C21.5 9.69999 21.5 9.6 21.4 9.6C21.0907 8.06609 20.364 6.64731 19.3 5.49999C18.3792 4.47998 17.2523 3.66722 15.9938 3.11555C14.7353 2.56388 13.374 2.28589 12 2.29999C9.81936 2.27422 7.69368 2.984 5.96604 4.31477C4.23839 5.64555 3.00959 7.51966 2.47796 9.63463C1.94633 11.7496 2.14289 13.982 3.03593 15.9715C3.92896 17.961 5.46635 19.5916 7.39996 20.6L7.99996 20.9C9.26202 21.4575 10.6208 21.7632 12 21.8H12.4C14.9291 21.6967 17.3202 20.6187 19.0724 18.792C20.8247 16.9652 21.8021 14.5313 21.8 12C21.8054 11.2561 21.7044 10.5153 21.5 9.79999V9.79999ZM3.79996 12C3.78654 10.9194 3.98947 9.84711 4.3968 8.84618C4.80414 7.84524 5.40764 6.93594 6.17177 6.1718C6.9359 5.40767 7.84521 4.80417 8.84614 4.39684C9.84708 3.9895 10.9194 3.78657 12 3.79999C13.322 3.77727 14.6286 4.08672 15.8 4.69999H15.3C14.0224 4.68662 12.7551 4.92838 11.5722 5.41111C10.3893 5.89384 9.31462 6.60784 8.41121 7.51124C7.5078 8.41465 6.79381 9.48929 6.31108 10.6722C5.82834 11.8551 5.58658 13.1225 5.59996 14.4C5.58599 15.5608 5.7895 16.714 6.19996 17.8C5.43415 17.0415 4.82741 16.1379 4.4153 15.1419C4.00319 14.146 3.79399 13.0778 3.79996 12V12ZM8.89996 19.7C7.74558 18.1729 7.11435 16.3143 7.09996 14.4C7.09996 12.2252 7.96389 10.1395 9.50169 8.60172C11.0395 7.06392 13.1252 6.19999 15.3 6.19999C16.3524 6.21183 17.3972 6.38035 18.4 6.69999C18.6699 7.07748 18.9043 7.4792 19.1 7.89999C16.5973 8.00328 14.2316 9.07066 12.4982 10.8787C10.7647 12.6867 9.79783 15.0952 9.79996 17.6C9.79506 18.4096 9.89592 19.2165 10.1 20L8.89996 19.7ZM12 20.3H11.7C11.4622 19.4527 11.3278 18.5796 11.3 17.7C11.3 15.4987 12.1744 13.3876 13.731 11.831C15.2875 10.2745 17.3987 9.39999 19.6 9.39999H19.8C20.1195 10.2302 20.2888 11.1105 20.3 12C20.3 14.2013 19.4255 16.3124 17.8689 17.869C16.3124 19.4255 14.2013 20.3 12 20.3Z" fill="#F2F2F2"/>
</svg>
